<?xml version="1.0" encoding="UTF-8"?>
<svg version="1.1" xmlns="http://www.w3.org/2000/svg" width="512" height="512">
<path d="M0 0 C1.11535126 -0.00700928 2.23070251 -0.01401855 3.37985229 -0.02124023 C7.03344289 -0.03871476 10.68624652 -0.02723431 14.33984375 -0.01367188 C16.89852038 -0.0163698 19.457196 -0.02025471 22.01586914 -0.02526855 C27.36518105 -0.03114938 32.714216 -0.02303329 38.06347656 -0.00390625 C44.22062374 0.01785727 50.37724084 0.01080383 56.53437519 -0.01121187 C62.49259601 -0.03165186 68.45065424 -0.02936041 74.40890503 -0.01768494 C76.92853877 -0.01502818 79.44818617 -0.01825014 81.96780396 -0.02760315 C85.49712281 -0.03783105 89.02544251 -0.02217907 92.5546875 0 C94.09647171 -0.01214539 94.09647171 -0.01214539 95.66940308 -0.02453613 C106.66253049 0.10260323 115.18671479 3.37680523 123.109375 11.00976562 C128.98080345 17.80158015 131.42466978 25.14621859 131.375 34.03710938 C131.37177734 35.05869141 131.36855469 36.08027344 131.36523438 37.1328125 C131.35685547 38.18791016 131.34847656 39.24300781 131.33984375 40.33007812 C131.33533203 41.40451172 131.33082031 42.47894531 131.32617188 43.5859375 C131.31442104 46.22987496 131.29799162 48.87369764 131.27734375 51.51757812 C131.87626623 51.51481275 132.47518871 51.51204737 133.09226036 51.50919819 C147.69983488 51.44279734 162.30740045 51.39322915 176.91509056 51.36214161 C183.97941908 51.34670633 191.04364653 51.32568115 198.10791016 51.29125977 C204.92898131 51.25803936 211.74994753 51.24070998 218.57109451 51.2329464 C221.16972121 51.22741569 223.76834237 51.21661563 226.36692429 51.20038795 C230.01476054 51.17851979 233.66216703 51.1756152 237.31005859 51.17700195 C238.37749298 51.16621613 239.44492737 51.1554303 240.54470825 51.14431763 C252.53339632 51.1934339 262.71930501 54.65920275 271.73046875 62.70898438 C279.87563425 71.11037197 284.37100759 81.23259122 284.42451477 92.9666748 C284.43524773 94.58956421 284.43524773 94.58956421 284.44619751 96.24523926 C284.44888641 97.4224353 284.45157532 98.59963135 284.4543457 99.8125 C284.4609169 101.0603125 284.4674881 102.308125 284.47425842 103.59375 C284.49397266 107.72461185 284.50565836 111.85543489 284.515625 115.98632812 C284.5196758 117.41402708 284.52379282 118.84172586 284.52797508 120.26942444 C284.54701655 126.98260754 284.56124667 133.69577976 284.56958705 140.40898466 C284.57933923 148.12898354 284.60560994 155.84869416 284.64608794 163.56859159 C284.67637924 169.55356176 284.69106839 175.53844994 284.69436806 181.5234952 C284.69670482 185.08927514 284.70548287 188.65474682 284.73082924 192.22044373 C284.75872807 196.20964269 284.75423942 200.19820927 284.74731445 204.1875 C284.76652954 205.9290033 284.76652954 205.9290033 284.78613281 207.70568848 C284.69914786 221.54153135 280.54747094 232.60995844 271.18359375 242.79492188 C269.27734375 244.51757812 269.27734375 244.51757812 267.27734375 244.51757812 C267.2873365 246.39440277 267.2873365 246.39440277 267.29753113 248.30914307 C267.35851342 260.13715804 267.40339838 271.96514085 267.43278027 283.79327774 C267.44839389 289.87331985 267.46955332 295.95323441 267.50366211 302.03320312 C267.53640927 307.90764357 267.55422909 313.78196179 267.56197548 319.65648651 C267.5674915 321.89062166 267.57826252 324.12475061 267.59453392 326.35883331 C267.75222785 348.9206324 267.75222785 348.9206324 264.27734375 358.51757812 C264.03996994 359.17929016 263.80259613 359.8410022 263.55802917 360.52276611 C257.36884661 376.09783017 244.81660488 388.02425166 229.90234375 395.33007812 C219.21446287 399.73863918 208.77335999 400.96111305 197.29362488 400.90525818 C195.93261968 400.90944197 194.57161798 400.91492517 193.21062261 400.92157799 C189.50829363 400.9359146 185.80618948 400.93182524 182.10384881 400.92441118 C178.09621482 400.91965227 174.08862758 400.93221331 170.08100891 400.94242859 C162.24407228 400.95956932 154.40721599 400.96046639 146.57026549 400.95521569 C140.19579998 400.95116365 133.82135809 400.95262978 127.44689369 400.95796394 C126.53740542 400.95871237 125.62791714 400.95946079 124.69086862 400.96023189 C122.84285026 400.96176347 120.9948319 400.96330182 119.14681355 400.96484686 C101.84076253 400.97855498 84.53475679 400.97314625 67.22870681 400.96166164 C51.42317356 400.95173266 35.61775743 400.96466715 19.81224223 400.98859584 C3.55312283 401.01302433 -12.70594211 401.0225854 -28.96507949 401.01594311 C-38.08131071 401.012459 -47.19745193 401.01462926 -56.3136692 401.03219414 C-64.07461051 401.04696317 -71.83539843 401.04749052 -79.59633688 401.03012323 C-83.54980064 401.02164906 -87.50299094 401.01937496 -91.45643997 401.03477478 C-116.7439711 401.12608206 -138.14809901 399.92123049 -157.1328125 381.20507812 C-171.7543012 366.03225124 -175.20385103 348.75620884 -175.15625 328.42382812 C-175.16082025 326.70178015 -175.16612831 324.97973399 -175.1721344 323.25769043 C-175.18100896 319.67399611 -175.17870212 316.09052542 -175.16870117 312.50683594 C-175.15713572 307.91566018 -175.17756624 303.32524496 -175.20661831 298.73416901 C-175.22494429 295.18940351 -175.22469651 291.64482232 -175.21898079 288.10002136 C-175.21882757 286.40633567 -175.2248722 284.7126375 -175.23727226 283.01899719 C-175.25213715 280.65930713 -175.24154533 278.30105109 -175.22436523 275.94140625 C-175.2340332 275.24528229 -175.24370117 274.54915833 -175.25366211 273.8319397 C-175.20310007 270.51845594 -174.90991888 268.76931096 -172.91004944 266.08093262 C-169.73409316 263.81104097 -167.53173458 264.04144333 -163.72265625 264.51757812 C-161.28310273 265.80155366 -160.05990569 266.56874119 -159.12896729 269.18789673 C-158.58108734 272.3292973 -158.59784909 275.35304252 -158.59667969 278.54248047 C-158.59481155 279.2423407 -158.59294342 279.94220093 -158.59101868 280.66326904 C-158.58702144 282.18120329 -158.58494046 283.69914352 -158.58455658 285.21708298 C-158.58112094 288.46375816 -158.55972208 291.71023672 -158.53932571 294.95684242 C-158.50147046 300.99290055 -158.47002525 307.02875083 -158.47216797 313.06494141 C-158.47296253 317.27145763 -158.44927309 321.47725452 -158.41028595 325.68358231 C-158.39993131 327.27406185 -158.39822285 328.86462554 -158.40593719 330.45512009 C-158.47583993 346.47996294 -155.03549879 358.81670048 -143.66015625 370.66601562 C-132.395687 381.48795215 -119.46503901 383.82251955 -104.39595032 383.78500366 C-103.04537379 383.78874436 -101.69479942 383.79334755 -100.34422845 383.79873431 C-96.64765997 383.8109281 -92.95118224 383.81070813 -89.25459826 383.80834556 C-85.26193713 383.80793647 -81.26930475 383.81898537 -77.2766571 383.82846069 C-69.45944377 383.84505216 -61.64226061 383.85056941 -53.82503114 383.85168545 C-47.46806336 383.85263687 -41.1111055 383.85675188 -34.75414085 383.8630867 C-16.7165453 383.88069463 1.32102647 383.88992636 19.35863068 383.88842575 C20.3304266 383.88834584 21.30222252 383.88826593 22.3034668 383.88818359 C23.27645439 383.88810183 24.24944199 383.88802007 25.25191406 383.88793583 C41.01452223 383.88712322 56.77703478 383.9062557 72.5396153 383.93446033 C88.73866591 383.96321635 104.93766993 383.9769991 121.1367467 383.97527277 C130.22557636 383.97460978 139.3143058 383.98006239 148.40311241 384.00162888 C156.14266039 384.01987654 163.88206272 384.0241587 171.62162294 384.01061003 C175.56658512 384.0040982 179.51126816 384.00389804 183.45620346 384.02131653 C187.07554496 384.03713227 190.69438797 384.03409816 194.31371794 384.01674826 C196.22642769 384.01226379 198.13915343 384.0272688 200.05180186 384.04322755 C214.3596839 383.93012259 227.14180284 379.58381108 237.58984375 369.64257812 C250.05568357 356.34902661 250.87940118 341.60178527 250.88671875 324.22070312 C250.90172268 322.17517807 250.91845442 320.12966504 250.93682861 318.08416748 C250.9802659 312.7380717 251.00044858 307.39213929 251.01556396 302.04589844 C251.03522068 296.57542353 251.07718076 291.10512286 251.1171875 285.63476562 C251.19223342 274.92909052 251.24267955 264.22345489 251.27734375 253.51757812 C250.40517715 253.74061111 249.53301056 253.9636441 248.63441467 254.19343567 C216.0901051 262.49101006 216.0901051 262.49101006 200.71484375 265.20507812 C199.5619838 265.41312073 199.5619838 265.41312073 198.38583374 265.62536621 C162.6470371 272.05261261 126.51209589 275.50796677 90.27734375 277.51757812 C90.2419751 278.40243896 90.20660645 279.2872998 90.17016602 280.19897461 C89.54076405 293.99740227 85.15135934 305.15523734 75.08984375 314.76757812 C64.43492839 323.81522659 52.91505531 325.25184255 39.4609375 324.69677734 C29.04308184 323.84182363 19.91616835 317.59409029 12.96484375 310.14257812 C4.55389568 300.17652435 2.93011382 290.34579511 3.27734375 277.51757812 C1.97152344 277.49179687 0.66570312 277.46601563 -0.6796875 277.43945312 C-51.01009943 276.09587566 -102.13739982 269.55457888 -150.78515625 256.39257812 C-151.94966309 256.08022217 -153.11416992 255.76786621 -154.31396484 255.44604492 C-166.890344 251.89812569 -177.9113841 246.99211606 -185.03515625 235.58007812 C-189.23530967 228.0700212 -191.8303157 220.73333874 -191.86982727 212.06848145 C-191.87698257 210.98655518 -191.88413788 209.90462891 -191.89151001 208.78991699 C-191.89419891 207.61272095 -191.89688782 206.4355249 -191.8996582 205.22265625 C-191.9062294 203.97484375 -191.9128006 202.72703125 -191.91957092 201.44140625 C-191.93928516 197.3105444 -191.95097086 193.17972136 -191.9609375 189.04882812 C-191.9649883 187.62112917 -191.96910532 186.19343039 -191.97328758 184.76573181 C-191.99232905 178.05254871 -192.00655917 171.33937649 -192.01489955 164.62617159 C-192.02465173 156.90617271 -192.05092244 149.18646209 -192.09140044 141.46656466 C-192.12169174 135.48159449 -192.13638089 129.49670631 -192.13968056 123.51166105 C-192.14201732 119.94588111 -192.15079537 116.38040943 -192.17614174 112.81471252 C-192.20404057 108.82551356 -192.19955192 104.83694698 -192.19262695 100.84765625 C-192.20543701 99.68665405 -192.21824707 98.52565186 -192.23144531 97.32946777 C-192.15009976 84.39062873 -188.68999606 72.75637274 -179.6171875 63.33007812 C-169.2424773 53.61606376 -158.92219106 51.19725328 -144.98242188 51.29052734 C-143.25428757 51.29008926 -143.25428757 51.29008926 -141.49124146 51.28964233 C-137.70371833 51.29102965 -133.91639478 51.30656288 -130.12890625 51.32226562 C-127.49475207 51.32599788 -124.8605965 51.32884385 -122.22644043 51.33084106 C-116.01471213 51.3370392 -109.80305484 51.35342727 -103.59135771 51.37354004 C-96.51513789 51.39595114 -89.43891455 51.40690553 -82.36266804 51.41693091 C-67.81596094 51.43779512 -53.26930959 51.47293844 -38.72265625 51.51757812 C-38.74622192 50.55102295 -38.74622192 50.55102295 -38.77026367 49.56494141 C-38.83336526 46.59091284 -38.87188211 43.61702583 -38.91015625 40.64257812 C-38.93529297 39.629375 -38.96042969 38.61617187 -38.98632812 37.57226562 C-39.10083436 25.66361764 -36.21073142 17.54226101 -28.1640625 8.83007812 C-20.35716909 1.34145136 -10.40639832 -0.08197627 0 0 Z M-19.03515625 23.01757812 C-19.77185547 23.89929688 -19.77185547 23.89929688 -20.5234375 24.79882812 C-25.83823289 32.41612445 -22.72265625 42.99487548 -22.72265625 51.51757812 C22.81734375 51.51757812 68.35734375 51.51757812 115.27734375 51.51757812 C116.9969902 34.64991172 116.9969902 34.64991172 110.55859375 21.65429688 C109.97078125 21.17605469 109.38296875 20.6978125 108.77734375 20.20507812 C108.18953125 19.71394531 107.60171875 19.2228125 106.99609375 18.71679688 C103.95985629 16.59833119 101.28846703 16.39020959 97.70500183 16.37713623 C96.76716354 16.37142609 95.82932526 16.36571594 94.86306763 16.35983276 C93.83599701 16.3587149 92.80892639 16.35759705 91.75073242 16.35644531 C90.6675322 16.35148041 89.58433197 16.3465155 88.4683075 16.34140015 C84.87730275 16.3267698 81.28634218 16.31997505 77.6953125 16.31445312 C75.20290627 16.3087024 72.71050007 16.30294466 70.21809387 16.29718018 C65.65708111 16.28801184 61.09608104 16.28171253 56.53506011 16.27868342 C50.49555343 16.27465005 44.45620222 16.26237455 38.41674805 16.23632812 C31.93586528 16.20880761 25.455116 16.19593609 18.97417641 16.19400787 C16.5034302 16.19097974 14.03268488 16.18294587 11.56197166 16.16982269 C8.10520337 16.15277279 4.64893193 16.15464016 1.19213867 16.16113281 C0.17114075 16.15191803 -0.84985718 16.14270325 -1.90179443 16.13320923 C-9.03191196 16.17517141 -14.32670337 17.2303692 -19.03515625 23.01757812 Z M-169.66015625 76.33007812 C-176.0103621 83.6476372 -176.16267779 91.80907656 -176.12670898 101.01708984 C-176.13357224 102.25065216 -176.14043549 103.48421448 -176.14750671 104.75515747 C-176.1626131 108.11907245 -176.16428491 111.4824305 -176.15856433 114.8463378 C-176.15546027 117.6641777 -176.16157851 120.48196815 -176.16760308 123.29980099 C-176.18162095 129.95300212 -176.18011043 136.60607478 -176.16870117 143.25927734 C-176.15722745 150.10083373 -176.171289 156.94199776 -176.19809765 163.78350246 C-176.22032098 169.67764206 -176.22687702 175.57165911 -176.22102123 181.4658376 C-176.21766564 184.97722788 -176.2199725 188.48836686 -176.23727226 191.99972153 C-176.25574459 195.91972732 -176.24148622 199.83925817 -176.22436523 203.75927734 C-176.2340332 204.90765076 -176.24370117 206.05602417 -176.25366211 207.23919678 C-176.17458179 215.9174625 -174.32805271 222.57226348 -169.53515625 229.83007812 C-163.17558635 235.90700048 -155.45466185 238.52780429 -147.09765625 240.76757812 C-146.1953125 241.0228125 -145.29296875 241.27804687 -144.36328125 241.54101562 C-139.48605396 242.89185117 -134.74203514 243.82086145 -129.72265625 244.51757812 C-129.72118969 243.70090007 -129.71972313 242.88422201 -129.71821213 242.04279613 C-129.68119074 222.18840652 -129.62223827 202.33418825 -129.53875351 182.47993755 C-129.49891228 172.87863057 -129.46654569 163.27740616 -129.45166016 153.67602539 C-129.43866991 145.30928363 -129.41177281 136.94272316 -129.36804318 128.57608348 C-129.34536897 124.14430869 -129.32974912 119.71275798 -129.3307724 115.28092003 C-129.33151552 111.11198196 -129.31370617 106.94354036 -129.28148842 102.77473068 C-129.27294947 101.24247182 -129.27126644 99.71015752 -129.27685356 98.17788506 C-129.28345568 96.08953612 -129.26566836 94.0027845 -129.24163818 91.91459656 C-129.23610743 90.15996361 -129.23610743 90.15996361 -129.23046494 88.36988354 C-128.72265625 85.51757812 -128.72265625 85.51757812 -126.91287613 83.61776447 C-123.51632201 81.91161501 -121.30082593 82.47665604 -117.72265625 83.51757812 C-114.69477817 87.3613335 -114.34280708 90.37911674 -114.32392883 95.19306946 C-114.31728201 95.85070996 -114.31063518 96.50835046 -114.30378693 97.18591946 C-114.28518745 99.38167359 -114.28776003 101.57688134 -114.2902832 103.77270508 C-114.28126414 105.34978503 -114.27093656 106.92685797 -114.25939941 108.50392151 C-114.23182012 112.78036706 -114.22254365 117.05667964 -114.21654534 121.3332026 C-114.2071641 125.80423519 -114.1809609 130.27516835 -114.15653992 134.74613953 C-114.11286437 143.21036949 -114.08432389 151.67458016 -114.06121653 160.13888854 C-114.03417053 169.77612135 -113.99025864 179.41325419 -113.94492781 189.05041564 C-113.85206642 208.87274936 -113.78039251 228.69511301 -113.72265625 248.51757812 C-109.28596884 249.35527747 -104.84818034 250.18699193 -100.41015625 251.01757812 C-99.14751953 251.25605469 -97.88488281 251.49453125 -96.58398438 251.74023438 C-94.77124023 252.07861328 -94.77124023 252.07861328 -92.921875 252.42382812 C-91.80643311 252.63330078 -90.69099121 252.84277344 -89.54174805 253.05859375 C-86.70518963 253.59792658 -86.70518963 253.59792658 -83.72265625 253.51757812 C-83.72265625 192.13757813 -83.72265625 130.75757813 -83.72265625 67.51757812 C-129.03130343 61.19210743 -129.03130343 61.19210743 -169.66015625 76.33007812 Z M-67.72265625 67.51757812 C-67.72265625 129.55757813 -67.72265625 191.59757813 -67.72265625 255.51757812 C-57.89977326 257.17437238 -57.89977326 257.17437238 -48.078125 258.33398438 C-47.42040604 258.39537094 -46.76268707 258.45675751 -46.08503723 258.52000427 C-44.71337587 258.64715994 -43.34152154 258.77225102 -41.96948242 258.89526367 C-39.92253669 259.07896704 -37.87630298 259.2693875 -35.83007812 259.4609375 C-22.80712655 260.66564374 -9.81336418 261.73697546 3.27734375 261.51757812 C3.28668945 260.85749756 3.29603516 260.19741699 3.30566406 259.51733398 C3.35969948 256.49585348 3.44328068 253.47586636 3.52734375 250.45507812 C3.54152344 249.41673828 3.55570312 248.37839844 3.5703125 247.30859375 C3.77470336 240.87028157 4.42261766 236.74396769 8.27734375 231.51757812 C13.45742543 227.41668013 17.27449334 226.40238047 23.74511719 226.35644531 C24.84015564 226.34683777 25.93519409 226.33723022 27.06341553 226.32733154 C28.24260559 226.32308167 29.42179565 226.31883179 30.63671875 226.31445312 C31.85506409 226.30875305 33.07340942 226.30305298 34.32867432 226.29718018 C36.90758395 226.28773392 39.48650563 226.28119768 42.06542969 226.27734375 C45.9982629 226.26764981 49.93057092 226.23662657 53.86328125 226.20507812 C56.37109065 226.19854664 58.87890379 226.19329674 61.38671875 226.18945312 C63.14335846 226.17093292 63.14335846 226.17093292 64.93548584 226.15203857 C78.63344092 226.1891523 78.63344092 226.1891523 83.82830811 230.93426514 C87.48118104 235.10555434 88.38514992 238.4479948 88.59375 243.84179688 C88.63564453 244.86982422 88.67753906 245.89785156 88.72070312 246.95703125 C88.76001953 248.02888672 88.79933594 249.10074219 88.83984375 250.20507812 C88.88302734 251.28853516 88.92621094 252.37199219 88.97070312 253.48828125 C89.07681213 256.16458604 89.17886736 258.84098339 89.27734375 261.51757812 C93.44279785 261.32012139 97.60715046 261.10683144 101.77124023 260.8828125 C103.82695154 260.77482188 105.88319405 260.67708101 107.93945312 260.58007812 C125.50233998 259.6199203 142.70860882 257.41690082 160.27734375 255.51757812 C160.27734375 193.47757812 160.27734375 131.43757812 160.27734375 67.51757812 C85.03734375 67.51757812 9.79734375 67.51757812 -67.72265625 67.51757812 Z M175.27734375 67.51757812 C175.27734375 128.56757813 175.27734375 189.61757813 175.27734375 252.51757812 C183.01900035 251.87244008 190.05189644 251.1475194 197.52734375 249.45507812 C198.37941406 249.26880859 199.23148437 249.08253906 200.109375 248.890625 C202.16688401 248.43982246 204.22235548 247.97973553 206.27734375 247.51757812 C206.2806539 246.72335858 206.28396404 245.92913904 206.2873745 245.11085224 C206.36857835 225.78989405 206.46066224 206.4690158 206.56487083 187.14816761 C206.61500258 177.80476838 206.66144546 168.46137796 206.69921875 159.11791992 C206.73214949 150.97460837 206.77198673 142.83136498 206.82013381 134.68812865 C206.84538801 130.37595423 206.86717251 126.06382497 206.88068771 121.75159645 C206.89351783 117.69276429 206.91558252 113.63408707 206.94472694 109.57534027 C206.95379528 108.08584201 206.95949122 106.59631879 206.96155739 105.10679436 C206.964885 103.07224432 206.98154766 101.03772914 206.99887085 99.00325012 C207.00440161 97.86483579 207.00993237 96.72642145 207.01563072 95.55350971 C207.28212192 92.46215028 207.86370508 90.27077137 209.27734375 87.51757812 C212.32718371 85.99265815 214.91968065 86.28195264 218.27734375 86.51757812 C219.97507954 87.64525318 219.97507954 87.64525318 221.27734375 89.51757812 C221.66210461 92.29179668 221.66210461 92.29179668 221.67607117 95.72477722 C221.68860931 97.02468094 221.70114746 98.32458466 221.71406555 99.66387939 C221.71289144 101.1075442 221.71143226 102.55120879 221.7097168 103.99487305 C221.71873124 105.51254578 221.72905767 107.03021121 221.74060059 108.54786682 C221.76823428 112.6715437 221.77746369 116.79508268 221.78345466 120.91884017 C221.79282181 125.22706197 221.8190238 129.53518008 221.84346008 133.84333801 C221.88717455 142.00305647 221.91569108 150.16275486 221.93878347 158.32255489 C221.96580867 167.61150357 222.00972179 176.90034821 222.05507219 186.18922269 C222.14798929 205.29861963 222.21963762 224.40804407 222.27734375 243.51757812 C223.53957764 243.36431564 224.80181152 243.21105316 226.10229492 243.05314636 C226.81230148 242.96693622 227.52230804 242.88072607 228.25382996 242.7919035 C232.68249897 242.19151408 236.96412954 240.97302113 241.27734375 239.83007812 C242.69660156 239.48299805 242.69660156 239.48299805 244.14453125 239.12890625 C252.18726909 236.995687 258.70091947 233.38660603 263.65234375 226.51757812 C264.11382812 225.89882813 264.5753125 225.28007812 265.05078125 224.64257812 C268.83950956 218.07866665 268.57363023 211.61336013 268.56787109 204.24511719 C268.57458832 203.01184692 268.58130554 201.77857666 268.58822632 200.50793457 C268.60394087 197.13574956 268.61057975 193.7638109 268.61185789 190.39160633 C268.61328306 188.28052793 268.61755961 186.16947506 268.62285233 184.05840302 C268.64133887 176.68117138 268.64952491 169.30401185 268.64794922 161.92675781 C268.64674908 155.07049048 268.6678297 148.21453857 268.69943655 141.35835099 C268.72566903 135.45577218 268.73631357 129.55329592 268.7350384 123.65065932 C268.73453069 120.13251501 268.74010682 116.61465104 268.7613945 113.09656525 C268.78452521 109.16679299 268.77521342 105.23744622 268.76318359 101.30761719 C268.77442261 100.15610168 268.78566162 99.00458618 268.79724121 97.81817627 C268.72090245 87.97130067 266.58967154 80.18417676 259.546875 73.08789062 C235.9486989 56.76006482 197.99542614 67.51757812 175.27734375 67.51757812 Z M20.27734375 241.51757812 C17.6835199 245.4083139 17.97159411 248.69474561 17.9765625 253.20898438 C17.97227737 254.06886459 17.96799225 254.92874481 17.96357727 255.81468201 C17.95783172 257.63792034 17.95733537 259.4611816 17.96166992 261.28442383 C17.96480449 264.04549564 17.94146319 266.80546893 17.91601562 269.56640625 C17.86579565 282.73240906 18.22953162 292.49924265 27.81640625 302.38085938 C33.58573277 307.39010002 40.61626334 309.85178633 48.27734375 309.51757812 C57.86103054 307.74604814 64.54301312 303.32169673 70.27734375 295.51757812 C74.15113852 288.83862163 74.43533613 282.91290917 74.4453125 275.38476562 C74.4486409 274.51111359 74.4519693 273.63746155 74.45539856 272.73733521 C74.46044725 270.89667282 74.46280752 269.05600133 74.46264648 267.21533203 C74.46484159 264.39535624 74.48304241 261.57576648 74.50195312 258.75585938 C74.50488572 256.96549613 74.50687141 255.17513103 74.5078125 253.38476562 C74.51499802 252.54098358 74.52218353 251.69720154 74.52958679 250.82785034 C74.5149112 245.87804806 74.5149112 245.87804806 72.27734375 241.51757812 C69.99397819 241.0589397 69.99397819 241.0589397 67.30859375 241.12939453 C65.75688477 241.11520981 65.75688477 241.11520981 64.17382812 241.10073853 C62.49256836 241.10984756 62.49256836 241.10984756 60.77734375 241.11914062 C59.63072266 241.11627045 58.48410156 241.11340027 57.30273438 241.11044312 C54.87499499 241.1083988 52.44723926 241.11395419 50.01953125 241.12646484 C46.29259591 241.14251245 42.56674516 241.12662763 38.83984375 241.10742188 C36.48567468 241.10940424 34.13150628 241.11324778 31.77734375 241.11914062 C30.09608398 241.11003159 30.09608398 241.11003159 28.38085938 241.10073853 C27.34638672 241.11019501 26.31191406 241.11965149 25.24609375 241.12939453 C24.33279297 241.13178131 23.41949219 241.13416809 22.47851562 241.1366272 C21.38893555 241.32519791 21.38893555 241.32519791 20.27734375 241.51757812 Z " fill="#932CF5" transform="translate(209.72265625,55.482421875)"/>
</svg>
